<?xml version="1.0" standalone="no"?>
<!DOCTYPE svg PUBLIC "-//W3C//DTD SVG 1.1//EN" "http://www.w3.org/Graphics/SVG/1.1/DTD/svg11.dtd" >
<svg xmlns="http://www.w3.org/2000/svg">
<metadata>
Created by FontForge 20120731 at Tue Jul  4 11:30:53 2017
 By admin
</metadata>
<defs>
<font id="iconfont" horiz-adv-x="1024" >
  <font-face 
    font-family="iconfont"
    font-weight="500"
    font-stretch="normal"
    units-per-em="1024"
    panose-1="2 0 6 3 0 0 0 0 0 0"
    ascent="896"
    descent="-128"
    x-height="792"
    bbox="0 -206 1195 896"
    underline-thickness="0"
    underline-position="0"
    unicode-range="U+0078-E6EB"
  />
<missing-glyph 
 />
    <glyph glyph-name=".notdef" 
 />
    <glyph glyph-name=".notdef" 
 />
    <glyph glyph-name=".null" horiz-adv-x="0" 
 />
    <glyph glyph-name="nonmarkingreturn" horiz-adv-x="341" 
 />
    <glyph glyph-name="x" unicode="x" horiz-adv-x="1001" 
d="M281 543q-27 -1 -53 -1h-83q-18 0 -36.5 -6t-32.5 -18.5t-23 -32t-9 -45.5v-76h912v41q0 16 -0.5 30t-0.5 18q0 13 -5 29t-17 29.5t-31.5 22.5t-49.5 9h-133v-97h-438v97zM955 310v-52q0 -23 0.5 -52t0.5 -58t-10.5 -47.5t-26 -30t-33 -16t-31.5 -4.5q-14 -1 -29.5 -0.5
t-29.5 0.5h-32l-45 128h-439l-44 -128h-29h-34q-20 0 -45 1q-25 0 -41 9.5t-25.5 23t-13.5 29.5t-4 30v167h911zM163 247q-12 0 -21 -8.5t-9 -21.5t9 -21.5t21 -8.5q13 0 22 8.5t9 21.5t-9 21.5t-22 8.5zM316 123q-8 -26 -14 -48q-5 -19 -10.5 -37t-7.5 -25t-3 -15t1 -14.5
t9.5 -10.5t21.5 -4h37h67h81h80h64h36q23 0 34 12t2 38q-5 13 -9.5 30.5t-9.5 34.5q-5 19 -11 39h-368zM336 498v228q0 11 2.5 23t10 21.5t20.5 15.5t34 6h188q31 0 51.5 -14.5t20.5 -52.5v-227h-327z" />
    <glyph glyph-name="dianyingpiao" unicode="&#xe601;" 
d="M861 585q102 -121 102 -285q0 -91 -35.5 -174t-96 -143t-143.5 -95.5t-174 -35.5t-174.5 35.5t-144 95.5t-96 143t-35.5 174q0 92 35.5 175.5t96 143.5t144 96t174.5 36q163 0 289 -106q44 -6 66.5 11t34.5 70l59 -20q-32 -104 -102 -121v0v0zM258 405q-42 0 -72.5 -30.5
t-30.5 -74.5q0 -42 30.5 -73.5t72.5 -31.5q44 0 74.5 31.5t30.5 73.5q0 44 -30.5 74.5t-74.5 30.5v0v0zM514 660q-43 0 -74 -30.5t-31 -73.5t30.5 -74t74.5 -31q43 0 74 31t31 74t-31 73.5t-74 30.5v0v0zM454 300q0 -25 17.5 -42t42.5 -17t42.5 17t17.5 42t-17.5 43
t-42.5 18t-42.5 -18t-17.5 -43v0v0zM514 151q-43 0 -74 -31t-31 -74q0 -44 30.5 -74.5t74.5 -30.5q43 0 74 30.5t31 74.5q0 43 -31 74t-74 31v0v0zM663 300q0 -42 31.5 -73.5t74.5 -31.5t74 31.5t31 73.5q0 44 -31 74.5t-74 30.5q-44 0 -75 -30.5t-31 -74.5v0zM663 300z" />
    <glyph glyph-name="yonghu" unicode="&#xe6db;" 
d="M150 -63q-1 11 -1 22q0 89 48.5 165t132.5 120t182 44t182 -44t132.5 -120t48.5 -165q0 -11 -1 -22h62v22q0 80 -33 153q-33 70 -92 124q-94 87 -224 108q76 24 125 90t49 148q0 104 -73 177.5t-176 73.5t-176 -73.5t-73 -177.5q0 -82 49 -148t125 -90
q-130 -21 -224 -108q-59 -54 -92 -124q-33 -73 -33 -153v-22h62zM327 582.5q0 77.5 54 132t131 54.5t131 -54.5t54 -132t-54 -132t-131 -54.5t-131 54.5t-54 132z" />
    <glyph glyph-name="huochepiao" unicode="&#xe607;" 
d="M787 -6h59q14 0 23.5 10t9.5 23v632q0 34 -24 58t-58 24h-180v47h-210v-47h-180q-34 0 -58 -24t-24 -58v-632q0 -13 9.5 -23t23.5 -10h59l-237 -182h152l186 182h348l186 -182h152zM686 98q0 21 14.5 35.5t35.5 14.5t35.5 -14.5t14.5 -35.5t-14.5 -35.5t-35.5 -14.5
t-35.5 14.5t-14.5 35.5zM291.5 48q-20.5 0 -35.5 14.5t-15 35.5t15 35.5t35.5 14.5t35.5 -14.5t15 -35.5t-15 -35.5t-35.5 -14.5zM243 307q-7 0 -11.5 5t-4.5 12v318q0 6 4.5 11t11.5 5h538q7 0 11.5 -5t4.5 -11v-318q0 -7 -4.5 -12t-11.5 -5h-538z" />
    <glyph glyph-name="shuzi0" unicode="&#xe60a;" 
d="M512 -184q-98 0 -187.5 38.5t-154.5 103.5t-103.5 154.5t-38.5 187.5t38.5 187.5t103.5 154.5t154.5 103.5t187.5 38.5t187.5 -38.5t154.5 -103.5t103.5 -154.5t38.5 -187.5t-38.5 -187.5t-103.5 -154.5t-154.5 -103.5t-187.5 -38.5zM512 727q-116 0 -214 -57.5
t-155.5 -155.5t-57.5 -214t57.5 -214t155.5 -155.5t214 -57.5t214 57.5t155.5 155.5t57.5 214t-57.5 214t-155.5 155.5t-214 57.5zM512 84q-46 0 -79 29.5t-49 80t-16 106.5t15.5 106t49 80t79.5 30t79 -29.5t49 -80t16 -106.5t-15.5 -106t-49 -80t-79.5 -30zM512 125
q45 0 65.5 48t20.5 127t-20.5 127t-65.5 48t-65.5 -48t-20.5 -127t20.5 -127t65.5 -48z" />
    <glyph glyph-name="jiudian" unicode="&#xe6eb;" 
d="M811 35v-192h168v-37h-902v37h132v607h-51v14l352 333l345 -325v-22h-44v-156v-37v-185v-37zM313 457h163l-84 126q-70 -48 -79 -126zM334 272h125q6 0 10 4.5t4 10.5v88q0 7 -4 11t-10 4h-125q-6 0 -10.5 -4t-4.5 -11v-88q0 -6 4.5 -10.5t10.5 -4.5zM319 205v-89
q0 -6 4.5 -10t10.5 -4h125q6 0 10 4t4 10v89q0 6 -4 10.5t-10 4.5h-125q-6 0 -10.5 -4.5t-4.5 -10.5zM514 620q-52 0 -97 -23l88 -140h10l90 143q-43 20 -91 20zM630 586l-86 -129h170q-4 40 -26.5 73.5t-57.5 55.5zM561 272h125q6 0 10.5 4.5t4.5 10.5v88q0 7 -4.5 11
t-10.5 4h-125q-6 0 -10 -4t-4 -11v-88q0 -6 4 -10.5t10 -4.5zM547 205v-89q0 -6 4 -10t10 -4h125q6 0 10.5 4t4.5 10v89q0 6 -4.5 10.5t-10.5 4.5h-125q-6 0 -10 -4.5t-4 -10.5zM745 35h-463v-30h44v-155h367v155h52v30z" />
    <glyph glyph-name="zhuxiaotouzhuzhanghu" unicode="&#xe612;" 
d="M761 52l-27 -27l-64 64l-64 -64l-27 27l64 64l-64 64l27 28l64 -64l64 64l27 -28l-64 -64zM558 274q28 -11 52 -31q-18 -6 -33 -17q-40 26 -88 26h-26q-67 0 -114.5 -47.5t-47.5 -114.5v-6h224q5 -21 17 -39h-260q-8 0 -13.5 5.5t-5.5 13.5q0 3 1 7h-1v6q0 66 36 119.5
t95 77.5q-36 22 -58 59t-22 81q0 67 47.5 114t114.5 47t114.5 -47t47.5 -114q0 -44 -22 -81t-58 -59zM476 536q-51 0 -87 -35.5t-36 -86.5t36 -87t87 -36t87 36t36 87t-36 86.5t-87 35.5z" />
    <glyph glyph-name="gouwuche1" unicode="&#xe618;" 
d="M269 824q-3 -15 7 -51q90 -344 103 -391q2 -10 12 -10q224 1 457 1q10 -1 12 9q15 53 80 294q0 1 2 10h-12h-561q-9 0 -10.5 1.5t-1.5 9.5v38q10 1 11 1h610q19 0 28 -21v-7q-7 -13 -11.5 -26.5t-9.5 -34.5t-7 -27q-11 -42 -76 -283q-3 -11 -5.5 -13t-14.5 -2h-475h-12
q16 -64 18 -69q1 -4 2 -10q2 -7 3.5 -8t10.5 -1h8h230.5h171.5q19 0 24.5 -18t-10.5 -27q-7 -5 -13 -5h-457q-9 0 -8 6q0 10 -2 20.5t-6 24t-6 19.5q-7 34 -15 58q-5 16 -12 46.5t-11 42.5q-2 9 -24 91q-11 43 -24 90q-3 12 -11 43t-13 48q-22 84 -23 90q-3 10 -13 10h-192
v51h246zM490 -42q-15 4 -16 4q-31 9 -49 34t-15 55q3 34 26.5 56t56.5 23q37 1 62.5 -22t28.5 -59q2 -31 -19.5 -57.5t-52.5 -31.5l-8 -2h-14v0zM444 45q0 -22 15.5 -37.5t37.5 -15.5t37.5 15.5t15.5 37.5t-15.5 37.5t-37.5 14.5q-22 0 -37.5 -15t-15.5 -37v0zM736 -42
l-16 4q-31 9 -49 34t-15 55q3 34 26.5 56t56.5 23q37 1 62.5 -22t28.5 -59q2 -31 -19.5 -57.5t-52.5 -31.5l-8 -2h-14v0zM796 45q0 22 -15.5 37t-37.5 15t-38 -15t-16 -37t16 -37.5t38 -15.5t37.5 15.5t15.5 37.5v0z" />
    <glyph glyph-name="jianhao" unicode="&#xe6a6;" 
d="M509.5 812q-103.5 0 -198 -40.5t-162.5 -108.5t-108.5 -162.5t-40.5 -198t40.5 -197.5t108.5 -162.5t162.5 -108.5t198 -40t197.5 40t162.5 108.5t108.5 162.5t40 197.5t-40 198t-108.5 162.5t-162.5 108.5t-197.5 40.5zM515 -163q-95 0 -181.5 37t-148.5 99t-99 148.5
t-37 181.5t37 181t99 148.5t148.5 99.5t181.5 37t181 -37t148.5 -99.5t99.5 -148.5t37 -181t-37 -181.5t-99.5 -148.5t-148.5 -99t-181 -37zM285 265h485v77h-485v-77z" />
    <glyph glyph-name="licai" unicode="&#xe624;" 
d="M868 451q-29 70 -82.5 124t-123.5 84q-71 30 -150 30t-150 -30q-70 -30 -123.5 -84t-82.5 -124q-30 -72 -30 -151t30 -151q29 -70 82.5 -124t123.5 -84q71 -30 150 -30t150 30q70 30 123.5 84t82.5 124q30 72 30 151t-30 151zM756 54q-101 -102 -244 -102t-244 102
t-101 246t101 246t244 102t244 -102t101 -246t-101 -246zM639 476l-29 29l-100 -101l-101 101l-29 -29l110 -110h-97v-41h99v-55h-99v-41h99v-119h40v119h99v41h-99v55h99v41h-99v3z" />
    <glyph glyph-name="comiisxiangji" unicode="&#xe657;" 
d="M874 681h-100q-13 29 -18 40q-13 25 -23 34.5t-32 9.5h-375q-23 0 -35.5 -11.5t-25.5 -45.5q-4 -10 -12 -27h-103q-43 0 -73.5 -30.5t-30.5 -72.5v-472q0 -42 30.5 -72.5t73.5 -30.5h724q43 0 73.5 30.5t30.5 72.5v472q0 42 -30.5 72.5t-73.5 30.5zM84 578q0 27 19.5 46
t46.5 19h111q16 0 21.5 13t12.5 29q2 4 6 14q0 2 1 4q10 24 24 24h374q12 0 19 -17l1 -1q7 -17 9 -21q13 -29 14 -32q6 -13 19 -13h112q27 0 46.5 -19t19.5 -46v-472q0 -27 -19.5 -46t-46.5 -19h-724q-27 0 -46.5 19t-19.5 46v472v0zM512 130q88 0 150 62t62 149.5
t-62 149.5t-150 62t-150 -62t-62 -149.5t62 -149.5t150 -62zM512 517q72 0 123.5 -51.5t51.5 -124t-51.5 -123.5t-123.5 -51t-123.5 51t-51.5 123.5t51.5 124t123.5 51.5zM785 515h47q8 0 13.5 6t5.5 13.5t-5.5 13t-13.5 5.5h-47q-8 0 -13.5 -5.5t-5.5 -13t5.5 -13.5
t13.5 -6z" />
    <glyph glyph-name="fangdajing1" unicode="&#xe611;" 
d="M454 89q-96 0 -177.5 47.5t-129 129t-47.5 177.5t47.5 178t129 129.5t177.5 47.5t178 -47.5t129.5 -129.5t47.5 -178t-47.5 -177.5t-129.5 -129t-178 -47.5zM454 669q-93 0 -159 -66.5t-66 -159.5t66 -159t159 -66t159 66t66 159t-66 159.5t-159 66.5zM838.5 -24
q-34.5 0 -59.5 24l-147 147q-25 24 -25 58.5t24.5 59.5t59.5 25t59 -25l147 -146q25 -25 25 -59.5t-24.5 -59t-59 -24.5z" />
    <glyph glyph-name="zhongchou" unicode="&#xe6e6;" horiz-adv-x="1025" 
d="M446 377q-45 22 -71.5 67.5t-26.5 101.5q0 77 49 131.5t119 54.5t119 -54.5t49 -131.5q0 -56 -26.5 -101.5t-70.5 -67.5q109 -26 182 -121t78 -220l-662 -1q7 124 80 219.5t181 122.5v0v0zM446 377zM656 710q63 -67 63 -164q0 -89 -55 -154v0q79 -38 135 -111.5
t75 -167.5v0h150q-5 112 -70 196t-161 107q39 20 62.5 60.5t23.5 89.5q0 69 -44 117.5t-105 48.5q-41 0 -76 -23zM370 709q-35 23 -75 23q-62 0 -106 -48.5t-44 -117.5q0 -49 23.5 -89.5t63.5 -60.5q-97 -23 -162 -107t-70 -196h150v0q19 94 75 167.5t135 111.5v0
q-55 65 -55 154q0 97 63 164z" />
    <glyph glyph-name="gouwuche" unicode="&#xe63f;" 
d="M246 -16q0 -28 20 -47.5t47.5 -19.5t47.5 19.5t20 47.5t-20 47.5t-47.5 19.5t-47.5 -19.5t-20 -47.5zM717 -16q0 -28 19.5 -47.5t47.5 -19.5t47.5 19.5t19.5 47.5t-19.5 47.5t-47.5 19.5t-47.5 -19.5t-19.5 -47.5zM906 131h-538q-21 0 -40 16.5t-24 38.5l-96 566
q-7 41 -40.5 68.5t-74.5 27.5h-23q-9 0 -17 -8t-8 -17.5t8 -17.5t17 -8h23q21 0 40 -16.5t24 -38.5l96 -566q7 -41 40.5 -68.5t74.5 -27.5h538q9 0 17 8t8 18t-7 17.5t-18 7.5zM880 717h-573q-9 0 -17 -8t-8 -17.5t8 -17.5t17 -8h573q19 0 28 -11.5t4 -30.5l-70 -282
q-5 -23 -27 -40.5t-47 -19.5l-397 -29q-10 0 -17.5 -8.5t-4.5 -20.5q0 -10 8.5 -17.5t20.5 -4.5l396 28q41 3 75 32t44 68l70 281q10 41 -15 73.5t-68 32.5z" />
    <glyph glyph-name="more" unicode="&#xe661;" 
d="M417 568q-11 -12 0 -25l158 -173l-158 -173q-11 -12 0 -24q5 -5 11.5 -5t10.5 5l168 184q5 6 5 13q0 8 -5 14l-168 184q-4 5 -10.5 5t-11.5 -5v0zM512 766q-107 0 -198.5 -53t-144.5 -144t-53 -198.5t53 -198.5t144.5 -144t198.5 -53t198.5 53t144.5 144t53 198.5
t-53 198.5t-144.5 144t-198.5 53zM512 -1q-101 0 -186.5 50t-135 135.5t-49.5 186t49.5 186t135 135t186.5 49.5t186.5 -49.5t135 -135t49.5 -186t-49.5 -186t-135 -135.5t-186.5 -50z" />
    <glyph glyph-name="plus-circle" unicode="&#xe616;" 
d="M512 -62q-90 0 -171.5 34t-144.5 97.5t-97 145t-34 171t34 171t97 145t144.5 97.5t171.5 34t171.5 -34t144.5 -97.5t97 -145t34 -171t-34 -171t-97 -145t-144.5 -97.5t-171.5 -34zM512 781q-79 0 -151.5 -30t-128.5 -86t-86 -128t-30 -151.5t30 -151.5t86 -128t128.5 -86
t151.5 -30t151.5 30t128.5 86t86 128t30 151.5t-30 151.5t-86 128t-128.5 86t-151.5 30zM512 151q-11 0 -18.5 7.5t-7.5 18.5v421q0 10 7.5 17.5t18.5 7.5t18.5 -7.5t7.5 -17.5v-421q0 -11 -7.5 -18.5t-18.5 -7.5zM722 361h-420q-11 0 -18.5 7.5t-7.5 18.5t7.5 18.5
t18.5 7.5h420q11 0 18.5 -7.5t7.5 -18.5t-7.5 -18.5t-18.5 -7.5z" />
    <glyph glyph-name="baitiao" unicode="&#xe629;" 
d="M927 896h-543q-40 0 -71 -31t-31 -71v-436h76v410q0 20 16 35.5t36 15.5h491q20 0 33 -13t13 -33v-696l1 -9q-17 -119 -154 -119q-71 0 -112.5 41.5t-41.5 111.5q0 63 38.5 106t97.5 52v47h-557q-91 0 -155 -63.5t-64 -154t64 -154t155 -63.5h609v2q76 8 131 62.5
t63 131.5h2v731q0 40 -28.5 68.5t-68.5 28.5z" />
    <glyph glyph-name="meiyuandollar142" unicode="&#xe602;" 
d="M584 801q0 8 -6 14t-14 6h-104q-8 0 -14 -6t-6 -14v0q0 -8 6 -14t14 -6h104q8 0 14 6t6 14v0zM734 873h-444q-32 0 -55 -23t-23 -56v-820q0 -33 23 -56t55 -23h444q32 0 55 23t23 56v820q0 33 -23 56t-55 23zM512.5 -75q-17.5 0 -30 12.5t-12.5 30t12.5 29.5t30 12
t29.5 -12t12 -29.5t-12 -30t-29.5 -12.5zM747 52q0 -6 -4 -9.5t-9 -3.5h-444q-5 0 -9 3.5t-4 9.5v664q0 6 4 9.5t9 3.5h444q5 0 9 -3.5t4 -9.5v-664zM461 469q0 19 16 31.5t40 12.5q20 0 40.5 -8t30.5 -16l10 -9l29 55q-3 4 -10 9.5t-30.5 16t-50.5 12.5v48h-44v-49
q-44 -7 -71 -36t-27 -68q0 -31 18 -54t44 -36t51.5 -24t43.5 -24t18 -30q0 -21 -15.5 -33t-37.5 -12q-23 0 -46 10t-35 20l-11 9l-36 -50q4 -5 12 -12t35 -20t57 -17v-48h44v48q46 6 73 36t27 71q0 32 -18 55.5t-43.5 36t-51.5 22.5t-44 23t-18 30z" />
    <glyph glyph-name="you" unicode="&#xe647;" 
d="M474 0l300 352q15 14 15 36t-15 41l-300 352q-16 21 -40.5 22.5t-43.5 -16t-19 -45.5v-710q0 -25 19 -41t43.5 -14t40.5 23z" />
    <glyph glyph-name="jipiao" unicode="&#xe60c;" 
d="M985 187v99l-394 256v277q0 32 -23.5 54.5t-55.5 22.5t-55.5 -22.5t-23.5 -54.5v-277l-394 -256v-99l394 118v-279l-118 -77v-77l197 39l197 -39v77l-118 77v279l394 -118v0z" />
    <glyph glyph-name="xiaoxi" unicode="&#xe62c;" 
d="M522 619q0 -24 16.5 -41t40 -17t40.5 17t17 41v0q0 23 -17 40t-40.5 17t-40 -17t-16.5 -40v0zM179 619q0 -24 16.5 -41t40 -17t40.5 17t17 41v0q0 23 -17 40t-40.5 17t-40 -17t-16.5 -40v0zM350 619q0 -24 17 -41t40.5 -17t40 17t16.5 41v0q0 23 -16.5 40t-40 17
t-40.5 -17t-17 -40v0zM922 502h-115v240q0 47 -33.5 80.5t-80.5 33.5h-571q-47 0 -80.5 -33.5t-33.5 -80.5v-343q0 -47 33.5 -80.5t80.5 -33.5h114v-58q0 -35 31 -50q13 -6 25 -6q19 0 34 11l120 93v-132q0 -39 27.5 -66.5t66.5 -27.5h179l101 -78q14 -10 30 -10q11 0 22 5
q27 14 27 44v39h23q39 0 66.5 27.5t27.5 66.5v265q0 39 -27.5 66.5t-66.5 27.5zM293 227v87q0 11 -8.5 19.5t-19.5 8.5h-143q-24 0 -40.5 17t-16.5 40v343q0 24 16.5 40.5t40.5 16.5h571q24 0 40.5 -16.5t16.5 -40.5v-343q0 -23 -16.5 -40t-40.5 -17h-243q-10 0 -17 -6z
M960 143q0 -16 -11 -27t-27 -11h-51q-11 0 -19.5 -8t-8.5 -20v-55l-98 77q-7 6 -17 6h-188q-16 0 -27 11t-11 27v142h191q47 0 80.5 33.5t33.5 80.5v47h115q16 0 27 -11t11 -27v-265v0z" />
    <glyph glyph-name="iconfont64" unicode="&#xe60b;" 
d="M896 0q0 -66 -39.5 -87.5t-94.5 13.5l-579 372q-55 35 -55 86t55 86l579 372q55 35 94.5 13.5t39.5 -87.5v-768v0z" />
    <glyph glyph-name="guanzhu" unicode="&#xe609;" 
d="M512 -51q-51 25 -301 249q-106 97 -156 199.5t-36 197.5q20 136 147 205q39 18 78 21t73.5 -7.5t64.5 -26.5t56.5 -39t43 -41t30.5 -35q13 15 25 27.5t35 33.5t44.5 35.5t51.5 29t59 20t63.5 2t67.5 -19.5q61 -28 99 -82t48 -123q14 -95 -36 -197.5t-156 -199.5
q-250 -224 -301 -249zM262 787q-38 0 -76 -19q-114 -57 -135 -179q-9 -87 37.5 -183t141.5 -182q85 -76 155 -135t96 -80t31 -28q41 27 282 237q101 91 147 184.5t32 179.5q-10 58 -43 104.5t-85 75.5q-51 24 -97.5 18.5t-87 -28t-71 -51t-47.5 -50t-17 -24.5l-13 -6l-13 13
q0 2 -12 18t-35 38.5t-51 44.5t-65.5 37t-73.5 15z" />
    <glyph glyph-name="jimi" unicode="&#xe600;" 
d="M782 570q-4 3 -25 15.5t-36.5 23.5t-33.5 25t-25.5 27t-2.5 23q1 1 8.5 15.5t11.5 23t11 24.5t8.5 26.5t1 22.5t-7.5 19t-20 9q-18 3 -32.5 0.5t-24.5 -9t-16.5 -13.5t-9.5 -12l-3 -5l-2.5 12.5t-8 26t-14.5 33t-22 26.5t-29 12q-26 0 -42 -22t-17.5 -48.5t0.5 -48.5
q1 -6 -3 -1q-3 2 -10 11q-42 51 -64 51q-32 0 -44.5 -26t-3.5 -68q55 -47 55 -66q0 -11 -69 -56.5t-92 -55.5q-17 -8 -36 -19.5t-53.5 -42t-59 -66t-40 -93.5t-7.5 -123q9 -84 54 -152t112.5 -110.5t151 -64.5t172.5 -21q74 1 141.5 13t132 39.5t111 68.5t75.5 105.5
t29 144.5q0 67 -15 121.5t-37 86.5t-50.5 56.5t-51 34.5t-44 18t-23.5 9zM510 -80q-89 -1 -172.5 29.5t-142 79.5t-92.5 113t-30 128q3 43 18 83t33.5 66t38 46t31.5 29t13 9q13 6 34 16t70 39t79 56q19 16 26 34t3.5 32t-10 25.5t-12.5 17.5l-7 6q1 52 71 -42l10 -12
q-4 14 7.5 70t31.5 61q16 3 26 -29.5t12 -67.5l2 -34q4 7 11.5 17.5t24 32t31 32t20.5 3.5q5 -5 0.5 -20.5t-13 -36t-10.5 -28.5q-5 -19 5 -39t26.5 -35.5t42.5 -32.5t44 -26l40 -20q189 -88 179 -300q-5 -87 -63.5 -155.5t-157 -106.5t-220.5 -40zM518 535q-34 0 -66.5 -9
t-47.5 -19l-16 -9q-16 -101 -24 -264q-2 -45 13.5 -93.5t36 -82.5t48 -67t38.5 -43.5t17 -15.5v0q149 124 148 313v7q0 17 -6 76.5t-12 112t-6 51.5q-4 5 -13.5 12t-41.5 19t-68 12zM518 -7q-5 5 -12.5 13t-27 34t-34.5 52.5t-26 65t-10 73.5q6 128 17 225v0q5 3 12.5 8
t31.5 13t49 8t47.5 -8.5t31.5 -16.5l9 -9l5 -50t8 -86.5t5 -69.5v-6q0 -148 -106 -246zM268.5 453.5q-44.5 12.5 -86.5 -16.5t-57.5 -82.5t5 -100t64.5 -59t86 16.5t57.5 82.5t-4.5 100t-64.5 59zM293.5 307q-9.5 -34 -35 -52.5t-51 -11.5t-37 36t-1.5 63t35 52.5t50.5 11.5
t37 -36t2 -63zM891.5 346q-14.5 53 -53.5 82t-80 16.5t-60 -59t-4.5 -99.5t53.5 -82t80 -17t60 59t4.5 100zM814.5 234.5q-23.5 -7.5 -47 11.5t-32.5 52.5t1.5 62.5t34.5 36.5t47 -11.5t32 -52.5t-1.5 -62.5t-34 -36.5z" />
    <glyph glyph-name="jiayouqiasvgz" unicode="&#xe606;" horiz-adv-x="1194" 
d="M981 -128h-768q-88 0 -150.5 62.5t-62.5 150.5v598q0 88 62.5 150.5t150.5 62.5h768q89 0 151.5 -62.5t62.5 -150.5v-598q0 -88 -62.5 -150.5t-151.5 -62.5zM213 811q-53 0 -90.5 -37.5t-37.5 -90.5v-598q0 -53 37.5 -90.5t90.5 -37.5h768q53 0 90.5 37.5t37.5 90.5v598
q0 53 -37.5 90.5t-90.5 37.5h-768zM585 469h-500v171h633q-51 -44 -76 -82zM1021 469h88v171h-220q48 -50 78 -85q14 -18 27.5 -39t20.5 -34zM1017 338q0 -89 -62.5 -151.5t-151 -62.5t-151 62.5t-62.5 151.5q0 33 23 79t51.5 83.5t65 79t51 56t23.5 22.5v0l22.5 -22.5
t51.5 -56t65 -79t51 -83.5t23 -79z" />
    <glyph glyph-name="lipinqia" unicode="&#xe605;" 
d="M832 672h-640q-40 0 -68 -28t-28 -68v-448q0 -40 28 -68t68 -28h640q40 0 68 28t28 68v448q0 40 -28 68t-68 28zM864 128q0 -13 -9.5 -22.5t-22.5 -9.5h-640q-13 0 -22.5 9.5t-9.5 22.5v256h704v-256zM864 512h-704v64q0 13 9.5 22.5t22.5 9.5h640q13 0 22.5 -9.5
t9.5 -22.5v-64zM256 160h128q13 0 22.5 9.5t9.5 22.5t-9.5 22.5t-22.5 9.5h-128q-13 0 -22.5 -9.5t-9.5 -22.5t9.5 -22.5t22.5 -9.5zM512 160h64q13 0 22.5 9.5t9.5 22.5t-9.5 22.5t-22.5 9.5h-64q-13 0 -22.5 -9.5t-9.5 -22.5t9.5 -22.5t22.5 -9.5z" />
    <glyph glyph-name="qiye" unicode="&#xe62d;" 
d="M832 0v670q0 12 -8.5 20.5t-20.5 8.5h-163v104q0 12 -8.5 20.5t-20.5 8.5h-390q-12 0 -20.5 -8.5t-8.5 -20.5v-803h-32q-13 0 -22.5 -9.5t-9.5 -22.5t9 -22t22 -9h705q13 0 22 9t9 22t-9 22.5t-23 9.5h-31zM768 604v-540q0 -13 -9.5 -22.5t-22.5 -9.5h-96v96h32
q13 0 22.5 9.5t9.5 22.5v0q0 13 -9.5 22.5t-22.5 9.5h-32v64h32q13 0 22.5 9.5t9.5 22.5v0q0 13 -9.5 22.5t-22.5 9.5h-32v64h32q13 0 22.5 9.5t9.5 22.5v0q0 13 -9.5 22.5t-22.5 9.5h-32v64h32q13 0 22.5 9.5t9.5 22.5v0q0 13 -9.5 22.5t-22.5 9.5h-32v59h96q13 0 22.5 -9
t9.5 -22zM288 768h256q13 0 22.5 -9.5t9.5 -22.5v-672q0 -13 -9.5 -22.5t-22.5 -9.5h-256q-13 0 -22.5 9.5t-9.5 22.5v672q0 13 9.5 22.5t22.5 9.5zM352 704q13 0 22 -9.5t9 -22.5t-9 -22t-22 -9t-22.5 9t-9.5 22t9.5 22.5t22.5 9.5zM480 704q13 0 22 -9.5t9 -22.5t-9 -22
t-22 -9t-22.5 9t-9.5 22t9.5 22.5t22.5 9.5zM352 576q13 0 22 -9.5t9 -22.5t-9 -22t-22 -9t-22.5 9t-9.5 22t9.5 22.5t22.5 9.5zM480 576q13 0 22 -9.5t9 -22.5t-9 -22t-22 -9t-22.5 9t-9.5 22t9.5 22.5t22.5 9.5zM352 448q13 0 22 -9.5t9 -22.5t-9 -22t-22 -9t-22.5 9
t-9.5 22t9.5 22.5t22.5 9.5zM480 448q13 0 22 -9.5t9 -22.5t-9 -22t-22 -9t-22.5 9t-9.5 22t9.5 22.5t22.5 9.5zM352 320q13 0 22 -9.5t9 -22.5t-9 -22t-22 -9t-22.5 9t-9.5 22t9.5 22.5t22.5 9.5zM480 320q13 0 22 -9.5t9 -22.5t-9 -22t-22 -9t-22.5 9t-9.5 22t9.5 22.5
t22.5 9.5zM352 192q13 0 22 -9.5t9 -22.5t-9 -22t-22 -9t-22.5 9t-9.5 22t9.5 22.5t22.5 9.5zM480 192q13 0 22 -9.5t9 -22.5t-9 -22t-22 -9t-22.5 9t-9.5 22t9.5 22.5t22.5 9.5z" />
    <glyph glyph-name="tubiaozhizuomoban" unicode="&#xe640;" 
d="M891 24h-755q-15 0 -25.5 10.5t-10.5 26t10.5 26t25.5 10.5h755q16 0 26.5 -10.5t10.5 -26t-10.5 -26t-26.5 -10.5zM223.5 139q-15.5 0 -26 11t-10.5 26t11 26l456 456l52 -51l-457 -457q-10 -11 -25.5 -11zM740 641l-52 52l44 43q10 11 25.5 11t26 -11t10.5 -26t-11 -26
z" />
    <glyph glyph-name="location" unicode="&#xe604;" 
d="M512 -64q-14 15 -36.5 41.5t-80.5 101t-102 141.5t-80.5 145.5t-36.5 130.5q0 91 45 168.5t122.5 122.5t168.5 45t168.5 -45t122.5 -122.5t45 -168.5q0 -142 -242 -447q-71 -90 -94 -113zM512 623q-53 0 -90 -37.5t-37 -90t37 -89.5t90 -37t90 37t37 89.5t-37 90
t-90 37.5z" />
    <glyph glyph-name="youxi" unicode="&#xe66a;" 
d="M912 117q-24 -25 -48.5 -36t-40.5 -10t-37 7q-13 3 -37 23.5t-48 43t-63.5 44.5t-80.5 30q-40 7 -86 0q-42 -8 -81.5 -28.5t-64 -41t-48.5 -39.5t-37 -22q-17 -5 -22 -6.5t-22 -3t-27 2t-25.5 12t-30.5 24.5q-25 27 -37 102t-2 166.5t43 153.5q46 86 103 123.5t115 25.5
q31 -6 53.5 -12.5t29.5 -9t27 -12t23 -10.5t7 -2.5t15.5 -4t21.5 -2.5q21 0 45 9q13 4 30 14t39.5 17t63.5 13q130 18 218 -154q32 -61 42 -151.5t-1.5 -164.5t-36.5 -101zM868 505q-41 73 -87.5 108t-92.5 30q-45 -6 -95 -25.5t-73 -20.5h-26q-21 2 -74 20t-94 26
q-51 9 -97.5 -26.5t-82.5 -111.5q-36 -81 -33 -179.5t33 -141.5q26 -36 44.5 -44t45.5 -2q12 3 37 20t51.5 36.5t66 38t77.5 24.5q38 7 79 0q39 -6 76 -23t58 -32.5t46 -36t30 -24.5q20 -14 35.5 -20t35.5 -3t40 20q27 24 38 91.5t1 146t-39 129.5zM734 338h-90v43h-44v90
h44v43h90v-43h44v-90h-44v-43zM334.5 338q-36.5 0 -62.5 25.5t-26 62.5t26 62.5t62.5 25.5t62.5 -25.5t26 -62.5t-26 -62.5t-62.5 -25.5zM334.5 470q-18.5 0 -31 -13t-12.5 -31t12.5 -31t31 -13t31.5 13t13 31t-13 31t-31.5 13z" />
    <glyph glyph-name="dingbu" unicode="&#xe603;" 
d="M256 262l245 252q4 4 10.5 4t11 -4.5t4.5 -11.5t-4 -11l-245 -252q-4 -5 -10.5 -5t-11 5t-4.5 11.5t4 11.5v0zM500.5 513.5q4.5 4.5 11 4.5t11.5 -4l244 -252q5 -5 5 -11.5t-4.5 -11.5t-11 -5t-11.5 5l-244 252q-5 4 -5 11t4.5 11.5z" />
    <glyph glyph-name="kaoqinchuqin" unicode="&#xe608;" 
d="M923 757h-187v75h-75v-75h-298v75h-75v-75h-187q-15 0 -26 -11t-11 -26v-747q0 -15 11 -26t26 -11h822q15 0 26 11t11 26v747q0 15 -11 26t-26 11zM885 11h-746v522h746v-522v0zM385 156l-96 96l53 54l95 -96l246 245l53 -53l-245 -246l-54 -52z" />
    <glyph glyph-name="xiujiashenqing" unicode="&#xe60d;" 
d="M820 308l-7 3l6 4q68 53 68 139q0 72 -52 124t-125 52t-125 -52t-52 -124q0 -85 68 -139l6 -4l-7 -3q-86 -34 -137 -108.5t-51 -166.5v-60q0 -10 7.5 -18t18.5 -8h544q11 0 18.5 8t7.5 18v60q0 92 -51 166.5t-137 108.5zM585 453.5q0 51.5 36.5 88t88.5 36.5t88.5 -36.5
t36.5 -88t-36.5 -88t-88.5 -36.5t-88.5 36.5t-36.5 88zM956 -1h-492v34q0 101 72 173t174 72t174 -72t72 -173v-34v0zM361 444l-126 -125l40 -30l141 140v224h-55v-209zM84 392q-27 125 42.5 232t193.5 134q33 7 65 7q62 0 119.5 -24.5t100.5 -68.5l61 22q-52 61 -126 95.5
t-154 34.5q-39 0 -78 -8q-72 -16 -131.5 -57t-99.5 -103q-83 -128 -51 -277q23 -108 102 -185t188 -98l38 54q-100 10 -174.5 76.5t-95.5 165.5z" />
  </font>
</defs>
</svg>
